<svg xmlns="http://www.w3.org/2000/svg" width="300" height="200" viewBox="0 0 300 200" fill="none">
  <defs>
    <linearGradient id="bg" x1="0%" y1="0%" x2="100%" y2="100%">
      <stop offset="0%" style="stop-color:#101632;stop-opacity:1" />
      <stop offset="100%" style="stop-color:#0f1530;stop-opacity:1" />
    </linearGradient>
    <linearGradient id="primary" x1="0%" y1="0%" x2="100%" y2="0%">
      <stop offset="0%" style="stop-color:#2ed3b7;stop-opacity:1" />
      <stop offset="100%" style="stop-color:#1fa48f;stop-opacity:1" />
    </linearGradient>
  </defs>
  
  <!-- Background -->
  <rect width="300" height="200" fill="url(#bg)" rx="16"/>
  
  <!-- Computer Monitor -->
  <rect x="80" y="40" width="140" height="90" fill="#0b1020" stroke="#2ed3b7" stroke-width="2" rx="8"/>
  <rect x="85" y="45" width="130" height="70" fill="#14224a" rx="4"/>
  
  <!-- Screen content -->
  <rect x="90" y="55" width="40" height="6" fill="url(#primary)" rx="2"/>
  <rect x="90" y="65" width="60" height="4" fill="#9fb0d3" rx="1"/>
  <rect x="90" y="72" width="50" height="4" fill="#9fb0d3" rx="1"/>
  <rect x="90" y="85" width="35" height="6" fill="url(#primary)" rx="2"/>
  <rect x="90" y="95" width="45" height="4" fill="#9fb0d3" rx="1"/>
  
  <!-- Tools around computer -->
  <!-- Wrench -->
  <path d="M45 60 L55 70 L50 75 L40 65 Z" fill="url(#primary)"/>
  <circle cx="42" cy="62" r="3" fill="url(#primary)"/>
  
  <!-- Screwdriver -->
  <rect x="250" y="55" width="3" height="20" fill="url(#primary)" rx="1"/>
  <rect x="248" y="52" width="7" height="6" fill="#9fb0d3" rx="2"/>
  
  <!-- Gear -->
  <circle cx="60" cy="150" r="12" fill="none" stroke="url(#primary)" stroke-width="2"/>
  <circle cx="60" cy="150" r="6" fill="url(#primary)"/>
  
  <!-- Shield (security) -->
  <path d="M240 140 L250 130 L260 140 L250 160 Z" fill="url(#primary)" opacity="0.8"/>
  <path d="M245 140 L248 143 L255 136" stroke="#0b1020" stroke-width="2" fill="none"/>
  
  <!-- Monitor stand -->
  <rect x="145" y="130" width="10" height="15" fill="#9fb0d3"/>
  <rect x="135" y="145" width="30" height="5" fill="#9fb0d3" rx="2"/>
  
  <!-- Decorative dots -->
  <circle cx="30" cy="30" r="2" fill="#2ed3b7" opacity="0.6"/>
  <circle cx="270" cy="170" r="2" fill="#2ed3b7" opacity="0.6"/>
  <circle cx="40" cy="180" r="1.5" fill="#2ed3b7" opacity="0.4"/>
  <circle cx="260" cy="25" r="1.5" fill="#2ed3b7" opacity="0.4"/>
</svg>